<svg id="Capa_1" enable-background="new 0 0 511.95 511.95" height="512" viewBox="0 0 511.95 511.95" width="512" xmlns="http://www.w3.org/2000/svg"><g><path d="m115.792 138.734h195.166v30h-195.166z"/><path d="m115.792 198.734h195.166v30h-195.166z"/><path d="m115.792 258.734h195.166v30h-195.166z"/><path d="m438.28 330.763c-15.028-15.029-33.769-24.997-54.154-29.048v-301.715h-272.715l-68.786 68.787v372.417h220.429c5.203 14.767 13.686 28.302 25.084 39.7 20.697 20.697 47.884 31.046 75.071 31.046s54.373-10.349 75.07-31.046c41.395-41.394 41.395-108.747.001-150.141zm-316.921-298.284v46.256h-46.256zm-48.734 378.725v-302.47h78.734v-78.734h202.766v270.056c-24.932 2.099-48.092 12.811-65.987 30.707-20.053 20.052-31.096 46.713-31.096 75.071 0 1.797.045 3.588.133 5.37zm344.442 48.487c-29.698 29.698-78.02 29.696-107.716 0-14.386-14.386-22.309-33.513-22.309-53.857 0-20.346 7.923-39.473 22.309-53.858s33.513-22.309 53.858-22.309 39.472 7.923 53.857 22.309c29.698 29.697 29.698 78.018.001 107.715z"/><path d="m380.906 366.924-17.697 17.697-17.697-17.697-21.213 21.213 17.697 17.696-17.697 17.697 21.213 21.213 17.697-17.697 17.697 17.697 21.212-21.213-17.696-17.697 17.696-17.696z"/></g></svg>