<svg height="618pt" viewBox="-29 -19 618 618.66669" width="618pt" xmlns="http://www.w3.org/2000/svg"><path d="m19.667969 150h20v20h-20zm0 0"/><path d="m19.667969 190h20v20h-20zm0 0"/><path d="m39.667969 170h20v20h-20zm0 0"/><path d="m-.332031 170h20v20h-20zm0 0"/><path d="m189.667969 0h20v20h-20zm0 0"/><path d="m179.667969 360h20v60h-20zm0 0"/><path d="m429.667969 200v-41c-19.625-4.039062-34.960938-19.375-39-39h-52.003907c-4.035156 19.625-19.375 34.960938-38.996093 39v41h30v-5c0-19.332031 15.667969-35 35-35 19.328125 0 35 15.667969 35 35v5zm0 0"/><path d="m349.667969 195v5h30v-5c0-8.285156-6.714844-15-15-15-8.289063 0-15 6.714844-15 15zm0 0"/><path d="m339.667969 520h20v20h-20zm0 0"/><path d="m339.667969 360h20v20h-20zm0 0"/><path d="m339.667969 440h20v20h-20zm0 0"/><path d="m419.667969 520h20v20h-20zm0 0"/><path d="m179.667969 440h20v60h-20zm0 0"/><path d="m184.667969 185c-30.011719-.042969-55.4375 22.089844-59.527344 51.816406-4.09375 29.726563 14.410156 57.910156 43.308594 65.976563 28.90625 8.066406 59.324219-6.460938 71.21875-34.011719v-47.453125c-9.503907-21.949219-31.085938-36.203125-55-36.328125zm30 45h-20v-3.199219c-.007813-3.753906-3.046875-6.796875-6.804688-6.800781h-6.394531c-3.449219.019531-6.34375 2.601562-6.757812 6.023438-.414063 3.421874 1.773437 6.617187 5.117187 7.46875l14.539063 3.617187c11.855468 2.976563 20.195312 13.601563 20.265624 25.828125.066407 12.226562-8.144531 22.945312-19.964843 26.0625v11h-20v-11c-11.753907-3.070312-19.96875-13.671875-20-25.820312v-3.179688h20v3.199219c.003906 3.753906 3.046875 6.796875 6.800781 6.800781h6.394531c3.449219-.019531 6.34375-2.601562 6.757813-6.023438.417968-3.421874-1.769532-6.617187-5.117188-7.46875l-14.539062-3.617187c-11.855469-2.976563-20.195313-13.601563-20.265625-25.828125-.066407-12.226562 8.144531-22.945312 19.96875-26.0625v-11h20v11c11.75 3.070312 19.964843 13.671875 20 25.820312zm0 0"/><path d="m219.667969 440h20v60h-20zm0 0"/><path d="m89.667969 245c.058593 52.441406 42.558593 94.941406 95 95 19.730469.046875 38.972656-6.117188 55-17.632812v-19.285157c-31.660157 30.128907-81.636719 29.304688-112.285157-1.851562-30.652343-31.160157-30.652343-81.144531 0-112.300781 30.648438-31.15625 80.625-31.980469 112.285157-1.851563v-19.507813c-28.972657-20.574218-67.003907-23.253906-98.574219-6.953124-31.578125 16.292968-51.417969 48.851562-51.425781 84.382812zm0 0"/><path d="m219.667969 360h20v60h-20zm0 0"/><path d="m259.667969 520h20v60h-20zm0 0"/><path d="m319.667969 110c0-5.523438 4.476562-10 10-10h70c5.519531 0 10 4.476562 10 10 0 16.566406 13.429687 30 30 30 5.519531 0 10 4.476562 10 10v50h20v-120h-210v260h20v-190c0-5.523438 4.476562-10 10-10 16.566406 0 30-13.433594 30-30zm0 0"/><path d="m259.667969 360h20v60h-20zm0 0"/><path d="m259.667969 440h20v60h-20zm0 0"/><path d="m219.667969 520h20v60h-20zm0 0"/><path d="m99.667969 520h20v60h-20zm0 0"/><path d="m179.667969 520h20v60h-20zm0 0"/><path d="m499.667969 360h20v20h-20zm0 0"/><path d="m59.667969 440h20v60h-20zm0 0"/><path d="m299.667969 220v360h260v-360zm80 330c0 5.523438-4.480469 10-10 10h-40c-5.523438 0-10-4.476562-10-10v-40c0-5.523438 4.476562-10 10-10h40c5.519531 0 10 4.476562 10 10zm0-80c0 5.523438-4.480469 10-10 10h-40c-5.523438 0-10-4.476562-10-10v-40c0-5.523438 4.476562-10 10-10h40c5.519531 0 10 4.476562 10 10zm0-80c0 5.523438-4.480469 10-10 10h-40c-5.523438 0-10-4.476562-10-10v-40c0-5.523438 4.476562-10 10-10h40c5.519531 0 10 4.476562 10 10zm80 160c0 5.523438-4.480469 10-10 10h-40c-5.523438 0-10-4.476562-10-10v-40c0-5.523438 4.476562-10 10-10h40c5.519531 0 10 4.476562 10 10zm0-80c0 5.523438-4.480469 10-10 10h-40c-5.523438 0-10-4.476562-10-10v-40c0-5.523438 4.476562-10 10-10h40c5.519531 0 10 4.476562 10 10zm0-80c0 5.523438-4.480469 10-10 10h-40c-5.523438 0-10-4.476562-10-10v-40c0-5.523438 4.476562-10 10-10h40c5.519531 0 10 4.476562 10 10zm80 160c0 5.523438-4.480469 10-10 10h-40c-5.523438 0-10-4.476562-10-10v-40c0-5.523438 4.476562-10 10-10h40c5.519531 0 10 4.476562 10 10zm0-80c0 5.523438-4.480469 10-10 10h-40c-5.523438 0-10-4.476562-10-10v-40c0-5.523438 4.476562-10 10-10h40c5.519531 0 10 4.476562 10 10zm0-80c0 5.523438-4.480469 10-10 10h-40c-5.523438 0-10-4.476562-10-10v-40c0-5.523438 4.476562-10 10-10h40c5.519531 0 10 4.476562 10 10zm0-80c0 5.523438-4.480469 10-10 10h-200c-5.523438 0-10-4.476562-10-10v-60c0-5.523438 4.476562-10 10-10h200c5.519531 0 10 4.476562 10 10zm0 0"/><path d="m339.667969 300h180v-40h-180zm140-30h20v20h-20zm-40 0h20v20h-20zm0 0"/><path d="m99.667969 360h20v60h-20zm0 0"/><path d="m99.667969 440h20v60h-20zm0 0"/><path d="m419.667969 360h20v20h-20zm0 0"/><path d="m499.667969 440h20v20h-20zm0 0"/><path d="m419.667969 440h20v20h-20zm0 0"/><path d="m139.667969 360h20v60h-20zm0 0"/><path d="m139.667969 520h20v60h-20zm0 0"/><path d="m499.667969 520h20v20h-20zm0 0"/><path d="m139.667969 440h20v60h-20zm0 0"/><path d="m189.667969 60h20v20h-20zm0 0"/><path d="m219.667969 30h20v20h-20zm0 0"/><path d="m159.667969 30h20v20h-20zm0 0"/></svg>