<svg height="441pt" viewBox="0 -12 441.704 441" width="441pt" xmlns="http://www.w3.org/2000/svg"><path d="m80 200.351562h112v16h-112zm0 0"/><path d="m88 168.351562h112v16h-112zm0 0"/><path d="m248 200.351562h112v16h-112zm0 0"/><path d="m240 232.351562h112v16h-112zm0 0"/><path d="m96 136.351562h112v16h-112zm0 0"/><path d="m240 168.351562h112v16h-112zm0 0"/><path d="m64 389.039062 26.34375-26.34375c1.5-1.5 3.535156-2.34375 5.65625-2.34375h220.6875l125.015625-125.015624-11.304687-11.304688c-6.246094-6.246094-16.375-6.246094-22.621094 0l-79.777344 80.320312c0 4.417969-3.582031 8-8 8h-112v-16h104v-24c0-4.417968-3.582031-8-8-8h-204.6875l-35.3125 35.3125zm0 0"/><path d="m0 272.351562h48v144h-48zm0 0"/><path d="m88 232.351562h112v16h-112zm0 0"/><path d="m88 72.351562h112v16h-112zm0 0"/><path d="m80 104.351562h112v16h-112zm0 0"/><path d="m344 .351562c-30.929688 0-56 25.074219-56 56 0 30.929688 25.070312 56 56 56s56-25.070312 56-56c-.035156-30.914062-25.085938-55.964843-56-56zm0 48c11.675781-.023437 21.664062 8.378907 23.644531 19.886719 1.976563 11.507813-4.632812 22.761719-15.644531 26.640625v9.472656h-16v-9.472656c-9.554688-3.375-15.957031-12.394531-16-22.527344h16c0 4.417969 3.582031 8 8 8s8-3.582031 8-8c0-4.417968-3.582031-8-8-8-11.675781.023438-21.664062-8.378906-23.644531-19.886718-1.976563-11.507813 4.632812-22.761719 15.644531-26.640625v-9.472657h16v9.472657c9.554688 3.378906 15.957031 12.394531 16 22.527343h-16c0-4.417968-3.582031-8-8-8s-8 3.582032-8 8c0 4.417969 3.582031 8 8 8zm0 0"/></svg>