<svg height="448pt" viewBox="-56 0 448 448" width="448pt" xmlns="http://www.w3.org/2000/svg"><path d="m336 72c0-13.253906-10.746094-24-24-24h-72v9.472656c9.554688 3.378906 15.957031 12.394532 16 22.527344h40c4.417969 0 8 3.582031 8 8v320c0 4.417969-3.582031 8-8 8h-256c-4.417969 0-8-3.582031-8-8v-320c0-4.417969 3.582031-8 8-8h40c.042969-10.132812 6.445312-19.148438 16-22.527344v-9.472656h-72c-13.253906 0-24 10.746094-24 24v352c0 13.253906 10.746094 24 24 24h288c13.253906 0 24-10.746094 24-24zm0 0"/><path d="m96 80v8h144v-8c0-4.417969-3.582031-8-8-8s-8-3.582031-8-8v-16c0-1.386719-.367188-2.75-1.0625-3.953125-1.417969-2.496094-4.066406-4.039063-6.9375-4.046875h-30.160156c-1.019532-.007812-2.027344-.210938-2.96875-.601562-.378906-.1875-.742188-.410157-1.085938-.664063-.460937-.21875-.898437-.488281-1.304687-.796875-.054688-.050781-.074219-.113281-.128907-.167969-.40625-.441406-.765624-.929687-1.0625-1.449219-.277343-.339843-.523437-.699218-.738281-1.082031-.136719-.414062-.242187-.84375-.3125-1.277343-.183593-.574219-.304687-1.167969-.359375-1.769532 0-.0625-.039062-.121094-.039062-.191406.050781-.382812.128906-.761719.230468-1.136719.054688-.585937.171876-1.164062.355469-1.726562.234375-.523438.527344-1.019531.871094-1.480469.179687-.355469.382813-.695312.605469-1.023438 2.640625-2.914062 4.101562-6.703124 4.097656-10.632812 0-8.835938-7.164062-16-16-16s-16 7.164062-16 16c-.003906 3.929688 1.457031 7.71875 4.097656 10.632812.222656.328126.425782.667969.605469 1.023438.347656.457031.640625.957031.871094 1.480469.183593.5625.300781 1.144531.355469 1.734375.105468.371094.179687.746094.230468 1.128906v.191406c-.050781.601563-.171875 1.195313-.359375 1.769532-.070312.433593-.175781.863281-.3125 1.277343-.21875.382813-.464843.746094-.734375 1.089844-.304687.515625-.660156 1-1.066406 1.441406-.054688.054688-.070312.117188-.128906.167969-.324219.230469-.664063.433594-1.023438.605469-.457031.347656-.953125.644531-1.480468.882812-.546876.171875-1.113282.289063-1.6875.34375-.394532.105469-.800782.183594-1.207032.230469h-30.160156c-4.417969 0-8 3.582031-8 8v16c0 4.417969-3.582031 8-8 8s-8 3.582031-8 8zm0 0"/><path d="m80 96h-32v304h240v-304h-32c0 4.417969-3.582031 8-8 8h-160c-4.417969 0-8-3.582031-8-8zm176 272h-176v-16h176zm0-32h-176v-16h176zm0-32h-176v-16h176zm0-32h-176v-16h176zm0-32h-176v-16h176zm0-32h-176v-16h176zm0-32h-176v-16h176zm0-48v16h-176v-16zm0 0"/></svg>